<?xml version="1.0" encoding="UTF-8"?>
<svg id="Layer_3" data-name="Layer 3" xmlns="http://www.w3.org/2000/svg" viewBox="0 0 62.99 62.61">
  <defs>
    <style>
      .cls-1 {
        fill: #231f20;
      }
    </style>
  </defs>
  <g id="adulto">
    <circle class="cls-1" cx="21.59" cy="6.7" r="5.93"/>
    <path class="cls-1" d="m9.06,34.56c.01.45.06,1.49.73,1.93.23.15.48.19.68.22.22.03,1.04.15,1.72-.41.64-.54.7-1.31.71-1.45.2-4.36.4-8.71.6-13.07.06-.06.51-.47,1.13-.38.39.06.65.29.74.38v38.07c-.02.23-.02.58.14.94.52,1.26,2.24,1.4,2.32,1.41,1.13.08,2.32-.5,2.84-1.48.15-.28.22-.55.25-.75,0-7.18,0-14.36,0-21.55.14-.08.46-.25.9-.26.47,0,.81.17.94.25v21.14c0,.85.35,1.71,1.04,2.21.48.35,1.07.54,1.67.5.93-.06,1.76-.65,2.18-1.52.08-.17.11-.37.11-.57l.05-38.49c.21-.37.59-.64.98-.57.43.08.62.35.65.4.82,3.44,1.31,7.22,2.09,10.7.08.36.29.69.61.89.36.23.88.49,1.46.56.57.07,1.29-.16,1.74-.52.4-.31.66-.93.58-1.42-.52-2.94-.97-5.41-1.18-7.1-.41-3.32-.55-4.75-1.5-6.44-.94-1.68-2.3-2.78-3.45-3.5-.46-.28-.98-.42-1.52-.42l-13.17-.02c-.14.03-.35.07-.58.14-1.39.41-2.26,1.24-2.79,1.76-.58.57-1.82,1.81-2.15,3.68-.02.11-.03.19-.04.24,0,0-.74,5.43-.46,14.51Z"/>
  </g>
  <circle class="cls-1" cx="45.02" cy="32.43" r="5.09"/>
  <path class="cls-1" d="m36.42,34.1c-.1-.1-.21-.18-.34-.22-.73-.24-1.53-.08-2.1.44-.54.49-.77,1.23-.64,1.94.02.13.08.24.15.35.35.5.75,1.02,1.2,1.54,1.18,1.38,2.41,2.41,3.48,3.18.04.03.23.16.55.37.4.27.61.41.9.4.04,0,.06,0,.08,0,0,6.25.36,11.88.37,18.12,0,.13.02.26.07.37.35.77,1.08,1.3,1.91,1.37.9.08,1.77-.39,2.23-1.18.08-.13.11-.29.11-.44v-10.26c.4,0,.81,0,1.22-.01l-.07,10.12c0,.15.03.31.1.44.43.76,1.25,1.24,2.14,1.23.87,0,1.66-.49,2.09-1.24.07-.13.1-.29.1-.44v-16.95l.63.02c.19.38.38.83.52,1.33.5,1.71.32,3.23.11,4.16.1.8.8,1.4,1.58,1.37.74-.03,1.37-.6,1.47-1.35v-4.55c0-.09,0-.17-.03-.25-.22-.8-.66-1.97-1.52-3.18-.77-1.08-1.61-1.82-2.26-2.3-.16-.12-.34-.17-.54-.17l-8.86.02c-.24,0-.47-.09-.65-.27l-4.02-3.98Z"/>
</svg>