<svg xmlns="http://www.w3.org/2000/svg" xmlns:xlink="http://www.w3.org/1999/xlink" width="1080" zoomAndPan="magnify" viewBox="0 0 810 809.999993" height="1080" preserveAspectRatio="xMidYMid meet" version="1.0"><defs><clipPath id="131b375ef8"><path d="M 31 505 L 201.199219 505 L 201.199219 750.820312 L 31 750.820312 Z M 31 505 " clip-rule="nonzero"/></clipPath><clipPath id="06733267b4"><path d="M 78 426.820312 L 156 426.820312 L 156 504 L 78 504 Z M 78 426.820312 " clip-rule="nonzero"/></clipPath><clipPath id="850060931b"><path d="M 201.050781 384 L 455.300781 384 L 455.300781 750.664062 L 201.050781 750.664062 Z M 201.050781 384 " clip-rule="nonzero"/></clipPath><clipPath id="5e2c2d46c0"><path d="M 271 266.914062 L 387 266.914062 L 387 383 L 271 383 Z M 271 266.914062 " clip-rule="nonzero"/></clipPath><clipPath id="96b7c253ae"><path d="M 455.101562 283 L 779 283 L 779 751.023438 L 455.101562 751.023438 Z M 455.101562 283 " clip-rule="nonzero"/></clipPath><clipPath id="8d33013ba3"><path d="M 544 133.773438 L 692 133.773438 L 692 281 L 544 281 Z M 544 133.773438 " clip-rule="nonzero"/></clipPath></defs><path fill="#000000" d="M 197.328125 589.140625 L 170.382812 514.75 C 168.113281 510.371094 163.613281 507.90625 158.984375 507.957031 L 158.984375 507.875 L 73.265625 507.875 L 73.265625 507.957031 C 68.625 507.90625 64.136719 510.371094 61.859375 514.75 L 34.921875 589.140625 C 31.703125 595.347656 34.132812 602.984375 40.335938 606.183594 C 46.5625 609.402344 54.199219 606.976562 57.414062 600.773438 L 79.308594 540.035156 L 79.71875 635.332031 L 79.769531 635.332031 L 79.769531 691.890625 C 79.769531 692.707031 79.886719 693.480469 79.980469 694.28125 C 79.886719 695.0625 79.769531 695.828125 79.769531 696.65625 L 79.769531 729.328125 C 79.769531 739.9375 87.539062 748.53125 97.128906 748.53125 C 106.722656 748.53125 114.5 739.9375 114.5 729.328125 L 114.5 696.65625 C 114.5 695.828125 114.367188 695.0625 114.273438 694.28125 C 114.367188 693.480469 114.5 692.707031 114.5 691.890625 L 114.5 635.332031 L 119.464844 635.332031 L 119.464844 691.890625 C 119.464844 692.707031 119.601562 693.480469 119.683594 694.28125 C 119.601562 695.0625 119.464844 695.828125 119.464844 696.65625 L 119.464844 729.328125 C 119.464844 739.9375 127.246094 748.53125 136.839844 748.53125 C 146.433594 748.53125 154.207031 739.9375 154.207031 729.328125 L 154.207031 696.65625 C 154.207031 695.828125 154.074219 695.0625 153.996094 694.28125 C 154.074219 693.480469 154.207031 692.707031 154.207031 691.890625 L 154.207031 667.386719 L 154.164062 667.386719 L 154.164062 543.429688 L 174.816406 600.773438 C 178.042969 606.976562 185.671875 609.402344 191.898438 606.183594 C 198.113281 602.984375 200.535156 595.347656 197.328125 589.140625 " fill-opacity="1" fill-rule="nonzero"/><g clip-path="url(#131b375ef8)"><path fill="#ffffff" d="M 197.328125 589.140625 L 199.539062 588.339844 L 172.589844 513.949219 C 172.554688 513.855469 172.511719 513.757812 172.46875 513.667969 C 171.136719 511.101562 169.148438 509.074219 166.824219 507.703125 C 164.496094 506.335938 161.835938 505.609375 159.125 505.609375 C 159.078125 505.609375 159.011719 505.609375 158.921875 505.609375 L 158.984375 507.957031 L 161.332031 507.957031 L 161.332031 507.875 C 161.332031 507.253906 161.082031 506.652344 160.644531 506.214844 C 160.207031 505.777344 159.601562 505.527344 158.984375 505.527344 L 73.265625 505.527344 C 72.644531 505.527344 72.042969 505.777344 71.601562 506.214844 C 71.164062 506.652344 70.914062 507.253906 70.914062 507.875 L 70.914062 507.957031 L 73.265625 507.957031 L 73.296875 505.609375 L 73.121094 505.609375 C 70.40625 505.609375 67.746094 506.335938 65.417969 507.703125 C 63.09375 509.074219 61.109375 511.101562 59.773438 513.664062 C 59.730469 513.753906 59.683594 513.855469 59.648438 513.949219 L 32.710938 588.339844 L 34.921875 589.140625 L 32.835938 588.058594 C 31.691406 590.261719 31.148438 592.628906 31.148438 594.949219 C 31.148438 597.664062 31.886719 600.324219 33.269531 602.644531 C 34.652344 604.964844 36.691406 606.945312 39.261719 608.269531 L 39.257812 608.265625 C 41.460938 609.40625 43.835938 609.953125 46.164062 609.953125 C 48.878906 609.953125 51.542969 609.21875 53.863281 607.832031 C 56.1875 606.453125 58.171875 604.421875 59.503906 601.855469 C 59.546875 601.769531 59.59375 601.660156 59.628906 601.570312 L 77.015625 553.328125 L 77.367188 635.339844 C 77.371094 636.632812 78.425781 637.679688 79.71875 637.679688 L 79.769531 637.679688 L 79.769531 635.332031 L 77.417969 635.332031 L 77.417969 691.890625 C 77.421875 692.941406 77.5625 693.8125 77.648438 694.554688 L 79.980469 694.28125 L 77.648438 694 C 77.566406 694.726562 77.417969 695.597656 77.417969 696.65625 L 77.417969 729.328125 C 77.417969 735.210938 79.570312 740.566406 83.109375 744.484375 C 86.640625 748.394531 91.621094 750.878906 97.128906 750.878906 C 102.644531 750.878906 107.628906 748.394531 111.15625 744.484375 C 114.699219 740.566406 116.851562 735.210938 116.851562 729.328125 L 116.851562 696.65625 C 116.847656 695.574219 116.683594 694.699219 116.609375 694.007812 L 114.273438 694.28125 L 116.609375 694.546875 C 116.6875 693.835938 116.847656 692.96875 116.851562 691.890625 L 116.851562 637.679688 L 117.113281 637.679688 L 117.113281 691.890625 C 117.121094 692.96875 117.28125 693.828125 117.347656 694.523438 L 119.683594 694.28125 L 117.347656 694.03125 C 117.28125 694.707031 117.117188 695.574219 117.113281 696.65625 L 117.113281 729.328125 C 117.117188 735.210938 119.269531 740.566406 122.816406 744.484375 C 126.347656 748.394531 131.328125 750.878906 136.839844 750.878906 C 142.355469 750.878906 147.335938 748.394531 150.863281 744.484375 C 154.402344 740.566406 156.554688 735.210938 156.558594 729.328125 L 156.558594 696.65625 C 156.550781 695.574219 156.394531 694.71875 156.335938 694.054688 L 153.996094 694.28125 L 156.335938 694.5 C 156.394531 693.820312 156.550781 692.964844 156.554688 691.890625 L 156.558594 667.386719 C 156.558594 666.765625 156.304688 666.164062 155.867188 665.722656 C 155.429688 665.289062 154.824219 665.039062 154.207031 665.039062 L 154.164062 665.039062 L 154.164062 667.386719 L 156.511719 667.386719 L 156.511719 556.894531 L 172.605469 601.570312 C 172.640625 601.660156 172.6875 601.773438 172.734375 601.855469 C 174.066406 604.421875 176.046875 606.457031 178.371094 607.832031 C 180.695312 609.21875 183.355469 609.953125 186.070312 609.953125 C 188.398438 609.953125 190.773438 609.40625 192.976562 608.269531 C 195.550781 606.945312 197.589844 604.964844 198.972656 602.640625 C 200.355469 600.320312 201.09375 597.65625 201.09375 594.941406 C 201.09375 592.625 200.550781 590.261719 199.417969 588.066406 L 197.328125 589.140625 L 199.539062 588.339844 L 197.328125 589.140625 L 195.238281 590.214844 C 196.019531 591.738281 196.390625 593.351562 196.390625 594.941406 C 196.390625 596.808594 195.886719 598.644531 194.933594 600.238281 C 193.984375 601.832031 192.597656 603.179688 190.820312 604.09375 C 189.289062 604.886719 187.667969 605.257812 186.070312 605.257812 C 184.210938 605.257812 182.371094 604.746094 180.777344 603.800781 C 179.179688 602.851562 177.828125 601.46875 176.90625 599.691406 L 174.816406 600.773438 L 177.03125 599.980469 L 156.375 542.636719 C 155.988281 541.5625 154.882812 540.921875 153.757812 541.117188 C 152.632812 541.3125 151.8125 542.289062 151.8125 543.429688 L 151.8125 667.386719 C 151.8125 668.007812 152.0625 668.609375 152.5 669.046875 C 152.9375 669.484375 153.542969 669.734375 154.164062 669.734375 L 154.207031 669.734375 L 154.207031 667.386719 L 151.851562 667.386719 L 151.851562 691.890625 C 151.859375 692.449219 151.75 693.144531 151.65625 694.0625 C 151.644531 694.199219 151.644531 694.367188 151.65625 694.503906 C 151.75 695.402344 151.859375 696.082031 151.855469 696.65625 L 151.851562 729.328125 C 151.855469 734.058594 150.121094 738.296875 147.375 741.332031 C 144.625 744.371094 140.921875 746.179688 136.839844 746.183594 C 132.761719 746.179688 129.054688 744.371094 126.300781 741.332031 C 123.554688 738.296875 121.816406 734.058594 121.816406 729.328125 L 121.816406 696.65625 C 121.8125 696.085938 121.921875 695.414062 122.019531 694.53125 C 122.039062 694.363281 122.039062 694.207031 122.019531 694.039062 C 121.921875 693.132812 121.8125 692.445312 121.816406 691.890625 L 121.816406 635.332031 C 121.816406 634.714844 121.566406 634.109375 121.128906 633.671875 C 120.691406 633.234375 120.085938 632.984375 119.464844 632.984375 L 114.5 632.984375 C 113.878906 632.984375 113.277344 633.234375 112.835938 633.671875 C 112.398438 634.109375 112.148438 634.714844 112.148438 635.332031 L 112.148438 691.890625 C 112.152344 692.449219 112.046875 693.128906 111.9375 694.015625 C 111.921875 694.183594 111.921875 694.382812 111.9375 694.550781 C 112.046875 695.421875 112.152344 696.082031 112.148438 696.65625 L 112.148438 729.328125 C 112.148438 734.058594 110.414062 738.296875 107.667969 741.332031 C 104.917969 744.371094 101.214844 746.179688 97.128906 746.183594 C 93.054688 746.179688 89.351562 744.371094 86.597656 741.332031 C 83.851562 738.296875 82.121094 734.058594 82.121094 729.328125 L 82.121094 696.65625 C 82.117188 696.058594 82.210938 695.394531 82.3125 694.5625 C 82.339844 694.367188 82.339844 694.199219 82.316406 694.003906 C 82.210938 693.152344 82.117188 692.476562 82.121094 691.890625 L 82.121094 635.332031 C 82.121094 634.714844 81.871094 634.109375 81.429688 633.671875 C 80.992188 633.234375 80.390625 632.984375 79.769531 632.984375 L 79.71875 632.984375 L 79.71875 635.332031 L 82.066406 635.320312 L 81.660156 540.023438 C 81.652344 538.882812 80.835938 537.914062 79.710938 537.71875 C 78.582031 537.523438 77.484375 538.167969 77.097656 539.238281 L 55.203125 599.980469 L 57.414062 600.773438 L 55.328125 599.695312 C 54.40625 601.46875 53.054688 602.851562 51.457031 603.800781 C 49.863281 604.746094 48.027344 605.257812 46.164062 605.257812 C 44.566406 605.257812 42.949219 604.886719 41.417969 604.097656 L 41.417969 604.09375 C 39.644531 603.179688 38.257812 601.832031 37.308594 600.242188 C 36.359375 598.648438 35.847656 596.808594 35.847656 594.949219 C 35.847656 593.355469 36.21875 591.742188 37.007812 590.21875 C 37.054688 590.136719 37.097656 590.03125 37.132812 589.941406 L 64.070312 515.546875 L 61.859375 514.75 L 63.945312 515.832031 C 64.867188 514.0625 66.210938 512.695312 67.808594 511.75 C 69.40625 510.808594 71.25 510.304688 73.121094 510.304688 L 73.230469 510.304688 C 73.859375 510.316406 74.46875 510.070312 74.914062 509.628906 C 75.363281 509.1875 75.613281 508.582031 75.613281 507.957031 L 75.613281 507.875 L 73.265625 507.875 L 73.265625 510.222656 L 158.984375 510.222656 L 158.984375 507.875 L 156.632812 507.875 L 156.632812 507.957031 C 156.632812 508.59375 156.882812 509.191406 157.339844 509.636719 C 157.796875 510.082031 158.40625 510.320312 159.039062 510.304688 L 159.125 510.304688 C 160.992188 510.304688 162.835938 510.808594 164.429688 511.75 C 166.027344 512.695312 167.378906 514.0625 168.292969 515.828125 L 170.382812 514.75 L 168.171875 515.546875 L 195.117188 589.941406 C 195.152344 590.03125 195.195312 590.128906 195.238281 590.214844 L 197.328125 589.140625 " fill-opacity="1" fill-rule="nonzero"/></g><path fill="#000000" d="M 116.652344 501.609375 C 136.65625 501.609375 152.898438 485.394531 152.898438 465.429688 C 152.898438 445.421875 136.65625 429.203125 116.652344 429.203125 C 96.675781 429.203125 80.457031 445.421875 80.457031 465.429688 C 80.457031 485.394531 96.675781 501.609375 116.652344 501.609375 " fill-opacity="1" fill-rule="nonzero"/><g clip-path="url(#06733267b4)"><path fill="#ffffff" d="M 116.652344 501.609375 L 116.652344 503.957031 C 127.296875 503.957031 136.957031 499.636719 143.9375 492.667969 C 150.917969 485.699219 155.25 476.058594 155.246094 465.429688 C 155.246094 444.125 137.957031 426.859375 116.652344 426.855469 C 106.019531 426.855469 96.367188 431.179688 89.398438 438.152344 C 82.425781 445.128906 78.105469 454.789062 78.105469 465.429688 C 78.105469 476.058594 82.429688 485.699219 89.398438 492.664062 C 96.371094 499.632812 106.019531 503.957031 116.652344 503.957031 L 116.652344 499.257812 C 107.304688 499.257812 98.855469 495.472656 92.722656 489.34375 C 86.59375 483.214844 82.804688 474.773438 82.804688 465.429688 C 82.804688 456.070312 86.59375 447.609375 92.726562 441.476562 C 98.859375 435.339844 107.304688 431.554688 116.652344 431.550781 C 126.015625 431.554688 134.472656 435.34375 140.613281 441.476562 C 146.753906 447.613281 150.542969 456.070312 150.542969 465.429688 C 150.542969 474.773438 146.753906 483.210938 140.617188 489.34375 C 134.472656 495.472656 126.015625 499.257812 116.652344 499.257812 L 116.652344 501.609375 " fill-opacity="1" fill-rule="nonzero"/></g><path fill="#000000" d="M 449.515625 509.265625 L 409.273438 398.195312 C 405.886719 391.660156 399.164062 387.976562 392.253906 388.054688 L 392.253906 387.933594 L 264.242188 387.933594 L 264.242188 388.054688 C 257.316406 387.976562 250.613281 391.660156 247.214844 398.195312 L 206.980469 509.265625 C 202.175781 518.53125 205.808594 529.9375 215.070312 534.710938 C 224.367188 539.515625 235.773438 535.894531 240.570312 526.636719 L 273.273438 435.949219 L 273.878906 578.234375 L 273.957031 578.234375 L 273.957031 662.679688 C 273.957031 663.898438 274.132812 665.050781 274.277344 666.246094 C 274.132812 667.414062 273.957031 668.558594 273.957031 669.792969 L 273.957031 718.574219 C 273.957031 734.414062 285.5625 747.246094 299.882812 747.246094 C 314.210938 747.246094 325.824219 734.414062 325.824219 718.574219 L 325.824219 669.792969 C 325.824219 668.558594 325.625 667.414062 325.488281 666.246094 C 325.625 665.050781 325.824219 663.898438 325.824219 662.679688 L 325.824219 578.234375 L 333.238281 578.234375 L 333.238281 662.679688 C 333.238281 663.898438 333.441406 665.050781 333.566406 666.246094 C 333.441406 667.414062 333.238281 668.558594 333.238281 669.792969 L 333.238281 718.574219 C 333.238281 734.414062 344.859375 747.246094 359.1875 747.246094 C 373.511719 747.246094 385.117188 734.414062 385.117188 718.574219 L 385.117188 669.792969 C 385.117188 668.558594 384.921875 667.414062 384.804688 666.246094 C 384.921875 665.050781 385.117188 663.898438 385.117188 662.679688 L 385.117188 626.09375 L 385.054688 626.09375 L 385.054688 441.019531 L 415.898438 526.636719 C 420.714844 535.894531 432.109375 539.515625 441.40625 534.710938 C 450.691406 529.9375 454.304688 518.53125 449.515625 509.265625 " fill-opacity="1" fill-rule="nonzero"/><g clip-path="url(#850060931b)"><path fill="#ffffff" d="M 449.515625 509.265625 L 452.820312 508.074219 L 412.570312 397 C 412.519531 396.863281 412.457031 396.714844 412.390625 396.585938 C 410.40625 392.75 407.429688 389.726562 403.960938 387.675781 C 400.488281 385.632812 396.511719 384.546875 392.464844 384.546875 C 392.390625 384.546875 392.292969 384.546875 392.160156 384.546875 L 392.253906 388.054688 L 395.757812 388.054688 L 395.757812 387.933594 C 395.757812 387.007812 395.386719 386.109375 394.734375 385.453125 C 394.082031 384.800781 393.175781 384.425781 392.253906 384.425781 L 264.242188 384.425781 C 263.316406 384.425781 262.417969 384.800781 261.757812 385.453125 C 261.105469 386.109375 260.734375 387.007812 260.734375 387.933594 L 260.734375 388.054688 L 264.242188 388.054688 L 264.292969 384.546875 L 264.03125 384.546875 C 259.976562 384.546875 256 385.632812 252.527344 387.675781 C 249.054688 389.726562 246.089844 392.75 244.097656 396.578125 C 244.03125 396.710938 243.960938 396.863281 243.910156 397 L 203.679688 508.074219 L 206.980469 509.265625 L 203.867188 507.652344 C 202.160156 510.9375 201.347656 514.472656 201.347656 517.941406 C 201.347656 521.996094 202.453125 525.96875 204.519531 529.429688 C 206.582031 532.890625 209.625 535.851562 213.464844 537.828125 L 213.460938 537.824219 C 216.75 539.527344 220.292969 540.34375 223.769531 540.34375 C 227.828125 540.34375 231.804688 539.242188 235.273438 537.175781 C 238.738281 535.117188 241.707031 532.082031 243.691406 528.25 C 243.757812 528.121094 243.828125 527.960938 243.878906 527.824219 L 269.84375 455.800781 L 270.371094 578.246094 C 270.375 580.175781 271.949219 581.734375 273.878906 581.734375 L 273.957031 581.734375 L 273.957031 578.234375 L 270.449219 578.234375 L 270.449219 662.679688 C 270.453125 664.246094 270.660156 665.546875 270.792969 666.65625 L 274.277344 666.246094 L 270.792969 665.824219 C 270.667969 666.910156 270.449219 668.214844 270.449219 669.792969 L 270.449219 718.574219 C 270.449219 727.359375 273.660156 735.355469 278.941406 741.203125 C 284.21875 747.042969 291.65625 750.753906 299.882812 750.753906 C 308.117188 750.753906 315.558594 747.042969 320.832031 741.203125 C 326.117188 735.355469 329.332031 727.359375 329.332031 718.574219 L 329.332031 669.792969 C 329.328125 668.175781 329.085938 666.871094 328.976562 665.839844 L 325.488281 666.246094 L 328.976562 666.640625 C 329.089844 665.585938 329.328125 664.285156 329.332031 662.679688 L 329.332031 581.734375 L 329.726562 581.734375 L 329.726562 662.679688 C 329.738281 664.285156 329.972656 665.574219 330.074219 666.609375 L 333.566406 666.246094 L 330.074219 665.875 C 329.972656 666.882812 329.734375 668.175781 329.726562 669.792969 L 329.726562 718.574219 C 329.734375 727.359375 332.945312 735.355469 338.238281 741.203125 C 343.515625 747.042969 350.953125 750.753906 359.1875 750.753906 C 367.417969 750.753906 374.855469 747.042969 380.128906 741.203125 C 385.410156 735.355469 388.625 727.359375 388.628906 718.574219 L 388.628906 669.792969 C 388.617188 668.175781 388.386719 666.898438 388.300781 665.90625 L 384.804688 666.246094 L 388.300781 666.574219 C 388.386719 665.554688 388.617188 664.28125 388.625 662.679688 L 388.628906 626.09375 C 388.628906 625.167969 388.25 624.269531 387.597656 623.609375 C 386.945312 622.957031 386.039062 622.585938 385.117188 622.585938 L 385.054688 622.585938 L 385.054688 626.09375 L 388.5625 626.09375 L 388.5625 461.121094 L 412.597656 527.824219 C 412.648438 527.960938 412.71875 528.125 412.789062 528.25 C 414.777344 532.082031 417.738281 535.121094 421.203125 537.175781 C 424.675781 539.242188 428.648438 540.34375 432.707031 540.34375 C 436.183594 540.34375 439.726562 539.527344 443.015625 537.828125 C 446.863281 535.851562 449.90625 532.890625 451.972656 529.425781 C 454.035156 525.960938 455.140625 521.984375 455.140625 517.929688 C 455.140625 514.46875 454.328125 510.9375 452.636719 507.664062 L 449.515625 509.265625 L 452.820312 508.074219 L 449.515625 509.265625 L 446.394531 510.871094 C 447.5625 513.148438 448.117188 515.550781 448.117188 517.929688 C 448.117188 520.710938 447.359375 523.457031 445.941406 525.835938 C 444.519531 528.214844 442.453125 530.230469 439.796875 531.59375 C 437.511719 532.777344 435.089844 533.332031 432.707031 533.332031 C 429.925781 533.332031 427.175781 532.570312 424.796875 531.15625 C 422.417969 529.738281 420.398438 527.671875 419.015625 525.019531 L 415.898438 526.636719 L 419.207031 525.453125 L 388.355469 439.835938 C 387.777344 438.230469 386.128906 437.277344 384.449219 437.566406 C 382.773438 437.855469 381.542969 439.3125 381.542969 441.019531 L 381.542969 626.09375 C 381.542969 627.019531 381.914062 627.917969 382.570312 628.570312 C 383.226562 629.226562 384.125 629.597656 385.054688 629.597656 L 385.117188 629.597656 L 385.117188 626.09375 L 381.601562 626.09375 L 381.601562 662.679688 C 381.613281 663.511719 381.449219 664.546875 381.3125 665.917969 C 381.289062 666.125 381.289062 666.378906 381.3125 666.582031 C 381.449219 667.921875 381.613281 668.9375 381.609375 669.792969 L 381.601562 718.574219 C 381.609375 725.636719 379.019531 731.964844 374.917969 736.496094 C 370.808594 741.03125 365.28125 743.734375 359.1875 743.738281 C 353.09375 743.734375 347.558594 741.03125 343.445312 736.496094 C 339.34375 731.964844 336.75 725.636719 336.75 718.574219 L 336.75 669.792969 C 336.742188 668.941406 336.90625 667.941406 337.054688 666.621094 C 337.082031 666.367188 337.082031 666.136719 337.054688 665.886719 C 336.90625 664.53125 336.742188 663.507812 336.75 662.679688 L 336.75 578.234375 C 336.75 577.308594 336.375 576.40625 335.722656 575.753906 C 335.070312 575.101562 334.164062 574.730469 333.238281 574.730469 L 325.824219 574.730469 C 324.894531 574.730469 323.996094 575.101562 323.335938 575.753906 C 322.683594 576.40625 322.3125 577.308594 322.3125 578.234375 L 322.3125 662.679688 C 322.316406 663.511719 322.160156 664.527344 322 665.851562 C 321.972656 666.105469 321.972656 666.398438 322 666.652344 C 322.160156 667.949219 322.316406 668.9375 322.3125 669.792969 L 322.3125 718.574219 C 322.3125 725.636719 319.722656 731.964844 315.621094 736.496094 C 311.511719 741.03125 305.984375 743.734375 299.882812 743.738281 C 293.796875 743.734375 288.269531 741.03125 284.152344 736.496094 C 280.058594 731.964844 277.46875 725.636719 277.46875 718.574219 L 277.46875 669.792969 C 277.460938 668.898438 277.605469 667.914062 277.757812 666.667969 C 277.796875 666.378906 277.796875 666.125 277.765625 665.835938 C 277.605469 664.558594 277.460938 663.550781 277.46875 662.679688 L 277.46875 578.234375 C 277.46875 577.308594 277.09375 576.40625 276.4375 575.753906 C 275.785156 575.101562 274.882812 574.730469 273.957031 574.730469 L 273.878906 574.730469 L 273.878906 578.234375 L 277.386719 578.21875 L 276.78125 435.933594 C 276.769531 434.230469 275.546875 432.78125 273.871094 432.492188 C 272.1875 432.203125 270.546875 433.160156 269.96875 434.761719 L 237.269531 525.453125 L 240.570312 526.636719 L 237.457031 525.023438 C 236.078125 527.671875 234.066406 529.738281 231.679688 531.15625 C 229.300781 532.570312 226.558594 533.332031 223.769531 533.332031 C 221.386719 533.332031 218.972656 532.777344 216.683594 531.597656 L 216.683594 531.59375 C 214.035156 530.230469 211.96875 528.21875 210.546875 525.839844 C 209.132812 523.464844 208.371094 520.71875 208.371094 517.941406 C 208.371094 515.558594 208.921875 513.152344 210.097656 510.878906 C 210.167969 510.753906 210.234375 510.597656 210.285156 510.460938 L 250.515625 399.390625 L 247.214844 398.195312 L 250.328125 399.8125 C 251.707031 397.171875 253.714844 395.128906 256.097656 393.71875 C 258.480469 392.3125 261.234375 391.558594 264.03125 391.558594 L 264.195312 391.558594 C 265.132812 391.578125 266.042969 391.210938 266.707031 390.550781 C 267.375 389.894531 267.753906 388.992188 267.753906 388.054688 L 267.753906 387.933594 L 264.242188 387.933594 L 264.242188 391.441406 L 392.253906 391.441406 L 392.253906 387.933594 L 388.746094 387.933594 L 388.746094 388.054688 C 388.746094 389.007812 389.117188 389.898438 389.796875 390.5625 C 390.484375 391.226562 391.386719 391.582031 392.335938 391.558594 L 392.464844 391.558594 C 395.253906 391.558594 398.007812 392.3125 400.390625 393.71875 C 402.773438 395.128906 404.789062 397.171875 406.152344 399.804688 L 409.273438 398.195312 L 405.972656 399.390625 L 446.214844 510.460938 C 446.265625 510.597656 446.332031 510.742188 446.394531 510.871094 L 449.515625 509.265625 " fill-opacity="1" fill-rule="nonzero"/></g><path fill="#000000" d="M 329.035156 378.574219 C 358.914062 378.574219 383.167969 354.371094 383.167969 324.558594 C 383.167969 294.6875 358.914062 270.472656 329.035156 270.472656 C 299.203125 270.472656 274.984375 294.6875 274.984375 324.558594 C 274.984375 354.371094 299.203125 378.574219 329.035156 378.574219 " fill-opacity="1" fill-rule="nonzero"/><g clip-path="url(#5e2c2d46c0)"><path fill="#ffffff" d="M 329.035156 378.574219 L 329.035156 382.082031 C 344.929688 382.082031 359.363281 375.632812 369.785156 365.230469 C 380.210938 354.824219 386.675781 340.425781 386.671875 324.558594 C 386.671875 292.75 360.855469 266.972656 329.035156 266.964844 C 313.15625 266.964844 298.742188 273.421875 288.339844 283.835938 C 277.921875 294.25 271.472656 308.671875 271.472656 324.558594 C 271.472656 340.425781 277.929688 354.824219 288.339844 365.222656 C 298.75 375.628906 313.15625 382.082031 329.035156 382.082031 L 329.035156 375.070312 C 315.078125 375.070312 302.460938 369.414062 293.300781 360.265625 C 284.148438 351.117188 278.492188 338.507812 278.492188 324.558594 C 278.492188 310.582031 284.148438 297.953125 293.308594 288.792969 C 302.46875 279.632812 315.078125 273.984375 329.035156 273.980469 C 343.015625 273.984375 355.648438 279.640625 364.820312 288.792969 C 373.992188 297.960938 379.652344 310.582031 379.652344 324.558594 C 379.652344 338.507812 373.992188 351.109375 364.824219 360.265625 C 355.648438 369.414062 343.015625 375.070312 329.035156 375.070312 L 329.035156 378.574219 " fill-opacity="1" fill-rule="nonzero"/></g><path fill="#000000" d="M 771.734375 443.007812 L 720.449219 301.28125 C 716.132812 292.941406 707.570312 288.242188 698.761719 288.34375 L 698.761719 288.1875 L 535.628906 288.1875 L 535.628906 288.34375 C 526.800781 288.242188 518.261719 292.941406 513.925781 301.28125 L 462.65625 443.007812 C 456.535156 454.828125 461.160156 469.382812 472.96875 475.472656 C 484.816406 481.601562 499.347656 476.980469 505.460938 465.167969 L 547.132812 349.457031 L 547.910156 531.007812 L 548.007812 531.007812 L 548.007812 638.757812 C 548.007812 640.308594 548.230469 641.785156 548.414062 643.308594 C 548.230469 644.796875 548.007812 646.257812 548.007812 647.832031 L 548.007812 710.078125 C 548.007812 730.289062 562.796875 746.660156 581.046875 746.660156 C 599.304688 746.660156 614.101562 730.289062 614.101562 710.078125 L 614.101562 647.832031 C 614.101562 646.257812 613.851562 644.796875 613.675781 643.308594 C 613.851562 641.785156 614.101562 640.308594 614.101562 638.757812 L 614.101562 531.007812 L 623.554688 531.007812 L 623.554688 638.757812 C 623.554688 640.308594 623.8125 641.785156 623.972656 643.308594 C 623.8125 644.796875 623.554688 646.257812 623.554688 647.832031 L 623.554688 710.078125 C 623.554688 730.289062 638.363281 746.660156 656.621094 746.660156 C 674.878906 746.660156 689.667969 730.289062 689.667969 710.078125 L 689.667969 647.832031 C 689.667969 646.257812 689.417969 644.796875 689.269531 643.308594 C 689.417969 641.785156 689.667969 640.308594 689.667969 638.757812 L 689.667969 592.070312 L 689.585938 592.070312 L 689.585938 355.921875 L 728.894531 465.167969 C 735.03125 476.980469 749.550781 481.601562 761.398438 475.472656 C 773.230469 469.382812 777.835938 454.828125 771.734375 443.007812 " fill-opacity="1" fill-rule="nonzero"/><g clip-path="url(#96b7c253ae)"><path fill="#ffffff" d="M 771.734375 443.007812 L 775.941406 441.484375 L 724.652344 299.757812 C 724.589844 299.582031 724.503906 299.394531 724.421875 299.226562 C 721.890625 294.332031 718.101562 290.472656 713.679688 287.859375 C 709.253906 285.253906 704.1875 283.867188 699.027344 283.867188 C 698.9375 283.867188 698.8125 283.867188 698.644531 283.867188 L 698.761719 288.34375 L 703.226562 288.34375 L 703.226562 288.1875 C 703.226562 287.007812 702.753906 285.859375 701.921875 285.019531 C 701.089844 284.191406 699.9375 283.714844 698.761719 283.714844 L 535.628906 283.714844 C 534.449219 283.714844 533.300781 284.191406 532.464844 285.019531 C 531.632812 285.859375 531.15625 287.007812 531.15625 288.1875 L 531.15625 288.34375 L 535.628906 288.34375 L 535.691406 283.867188 L 535.355469 283.867188 C 530.191406 283.867188 525.125 285.253906 520.699219 287.859375 C 516.273438 290.472656 512.492188 294.332031 509.957031 299.21875 C 509.871094 299.386719 509.78125 299.582031 509.71875 299.757812 L 458.449219 441.484375 L 462.65625 443.007812 L 458.6875 440.945312 C 456.511719 445.140625 455.480469 449.648438 455.480469 454.074219 C 455.480469 459.246094 456.882812 464.316406 459.519531 468.734375 C 462.148438 473.152344 466.027344 476.925781 470.917969 479.449219 L 470.910156 479.441406 C 475.105469 481.617188 479.621094 482.660156 484.050781 482.660156 C 489.226562 482.660156 494.292969 481.253906 498.710938 478.617188 C 503.128906 475.988281 506.910156 472.117188 509.4375 467.230469 C 509.523438 467.0625 509.613281 466.859375 509.675781 466.683594 L 542.765625 374.785156 L 543.4375 531.019531 C 543.445312 533.480469 545.449219 535.472656 547.910156 535.472656 L 548.007812 535.472656 L 548.007812 531.007812 L 543.535156 531.007812 L 543.535156 638.757812 C 543.542969 640.757812 543.808594 642.414062 543.976562 643.832031 L 548.414062 643.308594 L 543.976562 642.769531 C 543.816406 644.152344 543.535156 645.816406 543.535156 647.832031 L 543.535156 710.078125 C 543.535156 721.285156 547.632812 731.488281 554.363281 738.949219 C 561.085938 746.402344 570.5625 751.132812 581.046875 751.132812 C 591.539062 751.132812 601.023438 746.402344 607.742188 738.949219 C 614.480469 731.488281 618.578125 721.285156 618.578125 710.078125 L 618.578125 647.832031 C 618.570312 645.769531 618.261719 644.105469 618.121094 642.789062 L 613.675781 643.308594 L 618.121094 643.8125 C 618.269531 642.460938 618.570312 640.804688 618.578125 638.757812 L 618.578125 535.472656 L 619.078125 535.472656 L 619.078125 638.757812 C 619.09375 640.804688 619.394531 642.449219 619.519531 643.769531 L 623.972656 643.308594 L 619.519531 642.832031 C 619.394531 644.117188 619.085938 645.769531 619.078125 647.832031 L 619.078125 710.078125 C 619.085938 721.285156 623.183594 731.488281 629.925781 738.949219 C 636.652344 746.402344 646.128906 751.132812 656.621094 751.132812 C 667.113281 751.132812 676.589844 746.402344 683.308594 738.949219 C 690.039062 731.488281 694.136719 721.285156 694.140625 710.078125 L 694.140625 647.832031 C 694.128906 645.769531 693.835938 644.140625 693.722656 642.875 L 689.269531 643.308594 L 693.722656 643.726562 C 693.835938 642.425781 694.128906 640.796875 694.136719 638.757812 L 694.140625 592.070312 C 694.140625 590.890625 693.660156 589.742188 692.828125 588.90625 C 691.996094 588.074219 690.84375 587.597656 689.667969 587.597656 L 689.585938 587.597656 L 689.585938 592.070312 L 694.058594 592.070312 L 694.058594 381.570312 L 724.6875 466.683594 C 724.75 466.859375 724.839844 467.070312 724.929688 467.230469 C 727.460938 472.117188 731.234375 475.996094 735.652344 478.617188 C 740.078125 481.253906 745.136719 482.660156 750.3125 482.660156 C 754.742188 482.660156 759.257812 481.617188 763.453125 479.449219 C 768.351562 476.925781 772.230469 473.152344 774.867188 468.726562 C 777.492188 464.308594 778.898438 459.234375 778.898438 454.058594 C 778.898438 449.640625 777.863281 445.140625 775.710938 440.957031 L 771.734375 443.007812 L 775.941406 441.484375 L 771.734375 443.007812 L 767.757812 445.054688 C 769.246094 447.957031 769.953125 451.023438 769.953125 454.058594 C 769.953125 457.609375 768.988281 461.113281 767.175781 464.148438 C 765.367188 467.179688 762.730469 469.753906 759.347656 471.496094 C 756.433594 473.003906 753.351562 473.710938 750.3125 473.710938 C 746.765625 473.710938 743.265625 472.738281 740.230469 470.933594 C 737.199219 469.125 734.625 466.488281 732.863281 463.105469 L 728.894531 465.167969 L 733.109375 463.65625 L 693.792969 354.414062 C 693.058594 352.363281 690.953125 351.148438 688.816406 351.519531 C 686.675781 351.886719 685.109375 353.75 685.109375 355.921875 L 685.109375 592.070312 C 685.109375 593.253906 685.585938 594.398438 686.417969 595.230469 C 687.257812 596.070312 688.402344 596.546875 689.585938 596.546875 L 689.667969 596.546875 L 689.667969 592.070312 L 685.1875 592.070312 L 685.1875 638.757812 C 685.203125 639.820312 684.992188 641.140625 684.816406 642.886719 C 684.789062 643.152344 684.789062 643.476562 684.816406 643.734375 C 684.992188 645.445312 685.203125 646.742188 685.195312 647.832031 L 685.1875 710.078125 C 685.195312 719.089844 681.894531 727.164062 676.667969 732.945312 C 671.433594 738.730469 664.386719 742.179688 656.621094 742.1875 C 648.855469 742.179688 641.804688 738.730469 636.5625 732.945312 C 631.332031 727.164062 628.027344 719.089844 628.027344 710.078125 L 628.027344 647.832031 C 628.019531 646.746094 628.230469 645.46875 628.417969 643.78125 C 628.453125 643.460938 628.453125 643.167969 628.417969 642.847656 C 628.230469 641.121094 628.019531 639.8125 628.027344 638.757812 L 628.027344 531.007812 C 628.027344 529.824219 627.550781 528.671875 626.71875 527.839844 C 625.886719 527.007812 624.734375 526.53125 623.554688 526.53125 L 614.101562 526.53125 C 612.921875 526.53125 611.773438 527.007812 610.9375 527.839844 C 610.105469 528.671875 609.628906 529.824219 609.628906 531.007812 L 609.628906 638.757812 C 609.636719 639.820312 609.433594 641.113281 609.230469 642.804688 C 609.195312 643.125 609.195312 643.503906 609.230469 643.824219 C 609.433594 645.480469 609.636719 646.742188 609.628906 647.832031 L 609.628906 710.078125 C 609.628906 719.089844 606.332031 727.164062 601.101562 732.945312 C 595.867188 738.730469 588.820312 742.179688 581.046875 742.1875 C 573.289062 742.179688 566.246094 738.730469 561.003906 732.945312 C 555.78125 727.164062 552.480469 719.089844 552.480469 710.078125 L 552.480469 647.832031 C 552.476562 646.691406 552.65625 645.433594 552.851562 643.847656 C 552.902344 643.476562 552.902344 643.152344 552.859375 642.785156 C 552.65625 641.15625 552.476562 639.867188 552.480469 638.757812 L 552.480469 531.007812 C 552.480469 529.824219 552.007812 528.671875 551.167969 527.839844 C 550.335938 527.007812 549.191406 526.53125 548.007812 526.53125 L 547.910156 526.53125 L 547.910156 531.007812 L 552.375 530.984375 L 551.609375 349.433594 C 551.59375 347.261719 550.035156 345.414062 547.898438 345.042969 C 545.75 344.675781 543.660156 345.898438 542.925781 347.9375 L 501.253906 463.65625 L 505.460938 465.167969 L 501.492188 463.113281 C 499.738281 466.488281 497.171875 469.125 494.132812 470.933594 C 491.097656 472.738281 487.601562 473.710938 484.050781 473.710938 C 481.011719 473.710938 477.9375 473.003906 475.023438 471.5 L 475.023438 471.496094 C 471.644531 469.753906 469.011719 467.1875 467.199219 464.152344 C 465.398438 461.121094 464.425781 457.617188 464.425781 454.074219 C 464.425781 451.03125 465.132812 447.964844 466.628906 445.0625 C 466.71875 444.902344 466.800781 444.707031 466.863281 444.53125 L 518.132812 302.804688 L 513.925781 301.28125 L 517.898438 303.34375 C 519.652344 299.976562 522.210938 297.367188 525.25 295.570312 C 528.285156 293.773438 531.792969 292.816406 535.355469 292.816406 L 535.566406 292.816406 C 536.761719 292.835938 537.921875 292.367188 538.769531 291.53125 C 539.621094 290.691406 540.101562 289.539062 540.101562 288.34375 L 540.101562 288.1875 L 535.628906 288.1875 L 535.628906 292.664062 L 698.761719 292.664062 L 698.761719 288.1875 L 694.289062 288.1875 L 694.289062 288.34375 C 694.289062 289.558594 694.765625 290.699219 695.628906 291.542969 C 696.503906 292.390625 697.65625 292.84375 698.867188 292.816406 L 699.027344 292.816406 C 702.585938 292.816406 706.09375 293.773438 709.128906 295.570312 C 712.167969 297.367188 714.734375 299.976562 716.472656 303.335938 L 720.449219 301.28125 L 716.242188 302.804688 L 767.527344 444.53125 C 767.589844 444.707031 767.671875 444.886719 767.757812 445.054688 L 771.734375 443.007812 " fill-opacity="1" fill-rule="nonzero"/></g><path fill="#000000" d="M 618.199219 276.246094 C 656.273438 276.246094 687.179688 245.363281 687.179688 207.324219 C 687.179688 169.210938 656.273438 138.3125 618.199219 138.3125 C 580.183594 138.3125 549.316406 169.210938 549.316406 207.324219 C 549.316406 245.363281 580.183594 276.246094 618.199219 276.246094 " fill-opacity="1" fill-rule="nonzero"/><g clip-path="url(#8d33013ba3)"><path fill="#ffffff" d="M 618.199219 276.246094 L 618.199219 280.722656 C 638.453125 280.722656 656.84375 272.492188 670.125 259.21875 C 683.414062 245.941406 691.652344 227.570312 691.648438 207.324219 C 691.648438 166.738281 658.746094 133.84375 618.199219 133.839844 C 597.964844 133.839844 579.59375 142.074219 566.335938 155.363281 C 553.0625 168.652344 544.84375 187.050781 544.84375 207.324219 C 544.84375 227.570312 553.070312 245.941406 566.335938 259.210938 C 579.601562 272.488281 597.964844 280.722656 618.199219 280.722656 L 618.199219 271.773438 C 600.410156 271.773438 584.332031 264.558594 572.660156 252.882812 C 560.996094 241.210938 553.789062 225.125 553.789062 207.324219 C 553.789062 189.492188 560.996094 173.378906 572.667969 161.6875 C 584.339844 150 600.410156 142.792969 618.199219 142.785156 C 636.015625 142.792969 652.113281 150.007812 663.800781 161.6875 C 675.488281 173.386719 682.699219 189.492188 682.699219 207.324219 C 682.699219 225.125 675.488281 241.203125 663.804688 252.882812 C 652.113281 264.558594 636.015625 271.773438 618.199219 271.773438 L 618.199219 276.246094 " fill-opacity="1" fill-rule="nonzero"/></g></svg>