<svg xmlns="http://www.w3.org/2000/svg" xmlns:xlink="http://www.w3.org/1999/xlink" width="1080" zoomAndPan="magnify" viewBox="0 0 810 809.999993" height="1080" preserveAspectRatio="xMidYMid meet" version="1.0"><defs><clipPath id="300935b684"><path d="M 19.273438 19.273438 L 790.726562 19.273438 L 790.726562 790.726562 L 19.273438 790.726562 Z M 19.273438 19.273438 " clip-rule="nonzero"/></clipPath><clipPath id="6eefb2eea1"><path d="M 405 19.273438 C 191.96875 19.273438 19.273438 191.96875 19.273438 405 C 19.273438 618.03125 191.96875 790.726562 405 790.726562 C 618.03125 790.726562 790.726562 618.03125 790.726562 405 C 790.726562 191.96875 618.03125 19.273438 405 19.273438 " clip-rule="nonzero"/></clipPath></defs><g clip-path="url(#300935b684)"><g clip-path="url(#6eefb2eea1)"><path fill="#000000" d="M 19.273438 19.273438 L 790.726562 19.273438 L 790.726562 790.726562 L 19.273438 790.726562 Z M 19.273438 19.273438 " fill-opacity="1" fill-rule="nonzero"/></g></g><path stroke-linecap="butt" transform="matrix(0.000000000000000046, 0.751039, -0.75, 0.000000000000000046, 440.623157, 176.564558)" fill="none" stroke-linejoin="miter" d="M 0.00246157 47.497545 L 304.5806 47.497545 " stroke="#ffffff" stroke-width="95" stroke-opacity="1" stroke-miterlimit="4"/><path stroke-linecap="butt" transform="matrix(0.559628, 0.500875, -0.500182, 0.558854, 416.861743, 352.283616)" fill="none" stroke-linejoin="miter" d="M -0.00243164 47.500313 L 304.581045 47.500822 " stroke="#ffffff" stroke-width="95" stroke-opacity="1" stroke-miterlimit="4"/></svg>